<svg width="155" height="20" viewBox="0 0 155 20" fill="none" xmlns="http://www.w3.org/2000/svg">
<path d="M13.4659 7H11.7045C11.6004 6.49337 11.4181 6.0483 11.1577 5.66477C10.902 5.28125 10.5895 4.95928 10.2202 4.69886C9.85559 4.43371 9.45076 4.23485 9.00568 4.10227C8.56061 3.9697 8.09659 3.90341 7.61364 3.90341C6.73295 3.90341 5.93513 4.12595 5.22017 4.57102C4.50994 5.0161 3.94413 5.67188 3.52273 6.53835C3.10606 7.40483 2.89773 8.4678 2.89773 9.72727C2.89773 10.9867 3.10606 12.0497 3.52273 12.9162C3.94413 13.7827 4.50994 14.4384 5.22017 14.8835C5.93513 15.3286 6.73295 15.5511 7.61364 15.5511C8.09659 15.5511 8.56061 15.4848 9.00568 15.3523C9.45076 15.2197 9.85559 15.0232 10.2202 14.7628C10.5895 14.4976 10.902 14.1733 11.1577 13.7898C11.4181 13.4015 11.6004 12.9564 11.7045 12.4545H13.4659C13.3333 13.1979 13.0919 13.8632 12.7415 14.4503C12.3911 15.0374 11.9555 15.5369 11.4347 15.9489C10.9138 16.3561 10.3291 16.6662 9.6804 16.8793C9.03646 17.0923 8.34754 17.1989 7.61364 17.1989C6.37311 17.1989 5.26989 16.8958 4.30398 16.2898C3.33807 15.6837 2.57813 14.822 2.02415 13.7045C1.47017 12.5871 1.19318 11.2614 1.19318 9.72727C1.19318 8.19318 1.47017 6.86742 2.02415 5.75C2.57813 4.63258 3.33807 3.77083 4.30398 3.16477C5.26989 2.55871 6.37311 2.25568 7.61364 2.25568C8.34754 2.25568 9.03646 2.36222 9.6804 2.57528C10.3291 2.78835 10.9138 3.10085 11.4347 3.51278C11.9555 3.91998 12.3911 4.41714 12.7415 5.00426C13.0919 5.58665 13.3333 6.25189 13.4659 7ZM21.1167 17.2273C20.1318 17.2273 19.2677 16.9929 18.5244 16.5241C17.7857 16.0554 17.2081 15.3996 16.7914 14.5568C16.3795 13.714 16.1735 12.7292 16.1735 11.6023C16.1735 10.4659 16.3795 9.47396 16.7914 8.62642C17.2081 7.77888 17.7857 7.12074 18.5244 6.65199C19.2677 6.18324 20.1318 5.94886 21.1167 5.94886C22.1015 5.94886 22.9633 6.18324 23.7019 6.65199C24.4453 7.12074 25.0229 7.77888 25.4349 8.62642C25.8515 9.47396 26.0599 10.4659 26.0599 11.6023C26.0599 12.7292 25.8515 13.714 25.4349 14.5568C25.0229 15.3996 24.4453 16.0554 23.7019 16.5241C22.9633 16.9929 22.1015 17.2273 21.1167 17.2273ZM21.1167 15.7216C21.8648 15.7216 22.4803 15.5298 22.9633 15.1463C23.4462 14.7628 23.8037 14.2585 24.0357 13.6335C24.2677 13.0085 24.3837 12.3314 24.3837 11.6023C24.3837 10.8731 24.2677 10.1937 24.0357 9.56392C23.8037 8.93419 23.4462 8.42519 22.9633 8.03693C22.4803 7.64867 21.8648 7.45455 21.1167 7.45455C20.3686 7.45455 19.7531 7.64867 19.2701 8.03693C18.7871 8.42519 18.4297 8.93419 18.1977 9.56392C17.9656 10.1937 17.8496 10.8731 17.8496 11.6023C17.8496 12.3314 17.9656 13.0085 18.1977 13.6335C18.4297 14.2585 18.7871 14.7628 19.2701 15.1463C19.7531 15.5298 20.3686 15.7216 21.1167 15.7216ZM30.8946 2.45455V17H29.2185V2.45455H30.8946ZM38.9964 17.2273C38.0115 17.2273 37.1474 16.9929 36.404 16.5241C35.6654 16.0554 35.0878 15.3996 34.6711 14.5568C34.2592 13.714 34.0532 12.7292 34.0532 11.6023C34.0532 10.4659 34.2592 9.47396 34.6711 8.62642C35.0878 7.77888 35.6654 7.12074 36.404 6.65199C37.1474 6.18324 38.0115 5.94886 38.9964 5.94886C39.9812 5.94886 40.843 6.18324 41.5816 6.65199C42.325 7.12074 42.9026 7.77888 43.3146 8.62642C43.7312 9.47396 43.9396 10.4659 43.9396 11.6023C43.9396 12.7292 43.7312 13.714 43.3146 14.5568C42.9026 15.3996 42.325 16.0554 41.5816 16.5241C40.843 16.9929 39.9812 17.2273 38.9964 17.2273ZM38.9964 15.7216C39.7445 15.7216 40.36 15.5298 40.843 15.1463C41.3259 14.7628 41.6834 14.2585 41.9154 13.6335C42.1474 13.0085 42.2634 12.3314 42.2634 11.6023C42.2634 10.8731 42.1474 10.1937 41.9154 9.56392C41.6834 8.93419 41.3259 8.42519 40.843 8.03693C40.36 7.64867 39.7445 7.45455 38.9964 7.45455C38.2483 7.45455 37.6327 7.64867 37.1498 8.03693C36.6668 8.42519 36.3094 8.93419 36.0773 9.56392C35.8453 10.1937 35.7293 10.8731 35.7293 11.6023C35.7293 12.3314 35.8453 13.0085 36.0773 13.6335C36.3094 14.2585 36.6668 14.7628 37.1498 15.1463C37.6327 15.5298 38.2483 15.7216 38.9964 15.7216ZM53.9732 12.5398V6.09091H55.6493V17H53.9732V15.1534H53.8595C53.6038 15.7074 53.2061 16.1785 52.6663 16.5668C52.1266 16.9503 51.4447 17.142 50.6209 17.142C49.9391 17.142 49.333 16.9929 48.8027 16.6946C48.2724 16.3916 47.8557 15.937 47.5527 15.331C47.2497 14.7202 47.0982 13.9508 47.0982 13.0227V6.09091H48.7743V12.9091C48.7743 13.7045 48.9968 14.339 49.4419 14.8125C49.8917 15.286 50.4646 15.5227 51.1607 15.5227C51.5773 15.5227 52.0011 15.4162 52.432 15.2031C52.8676 14.9901 53.2322 14.6634 53.5257 14.223C53.824 13.7827 53.9732 13.2216 53.9732 12.5398ZM59.3192 17V6.09091H60.9386V7.73864H61.0522C61.2511 7.19886 61.6109 6.76089 62.1317 6.42472C62.6526 6.08854 63.2397 5.92045 63.8931 5.92045C64.0162 5.92045 64.1701 5.92282 64.3548 5.92756C64.5394 5.93229 64.6791 5.93939 64.7738 5.94886V7.65341C64.717 7.6392 64.5868 7.6179 64.3832 7.58949C64.1843 7.55634 63.9736 7.53977 63.7511 7.53977C63.2208 7.53977 62.7473 7.65104 62.3306 7.87358C61.9187 8.09138 61.592 8.39441 61.3505 8.78267C61.1138 9.16619 60.9954 9.60417 60.9954 10.0966V17H59.3192ZM75.0879 8.53409L73.5822 8.96023C73.4875 8.70928 73.3479 8.46544 73.1632 8.22869C72.9833 7.98722 72.7371 7.78835 72.4246 7.6321C72.1121 7.47585 71.712 7.39773 71.2243 7.39773C70.5567 7.39773 70.0003 7.55161 69.5553 7.85938C69.1149 8.16241 68.8947 8.5483 68.8947 9.01705C68.8947 9.43371 69.0463 9.76278 69.3493 10.0043C69.6523 10.2457 70.1258 10.447 70.7697 10.608L72.3891 11.0057C73.3644 11.2424 74.0912 11.6046 74.5695 12.0923C75.0477 12.5753 75.2868 13.1979 75.2868 13.9602C75.2868 14.5852 75.1069 15.1439 74.747 15.6364C74.3919 16.1288 73.8947 16.517 73.2555 16.8011C72.6163 17.0852 71.873 17.2273 71.0254 17.2273C69.9127 17.2273 68.9918 16.9858 68.2626 16.5028C67.5335 16.0199 67.0718 15.3144 66.8777 14.3864L68.4686 13.9886C68.6201 14.5758 68.9066 15.0161 69.328 15.3097C69.7541 15.6032 70.3105 15.75 70.997 15.75C71.7783 15.75 72.3985 15.5843 72.8578 15.2528C73.3218 14.9167 73.5538 14.5142 73.5538 14.0455C73.5538 13.6667 73.4213 13.3494 73.1561 13.0938C72.891 12.8333 72.4838 12.6392 71.9345 12.5114L70.1163 12.0852C69.1173 11.8485 68.3834 11.4815 67.9146 10.9844C67.4506 10.4825 67.2186 9.85511 67.2186 9.10227C67.2186 8.48674 67.3914 7.94223 67.7371 7.46875C68.0875 6.99527 68.5633 6.62358 69.1646 6.35369C69.7707 6.08381 70.4572 5.94886 71.2243 5.94886C72.3038 5.94886 73.1514 6.18561 73.7669 6.65909C74.3872 7.13258 74.8275 7.75758 75.0879 8.53409ZM79.6315 17.1136C79.2811 17.1136 78.9804 16.9882 78.7295 16.7372C78.4785 16.4863 78.3531 16.1856 78.3531 15.8352C78.3531 15.4848 78.4785 15.1842 78.7295 14.9332C78.9804 14.6823 79.2811 14.5568 79.6315 14.5568C79.9818 14.5568 80.2825 14.6823 80.5334 14.9332C80.7844 15.1842 80.9099 15.4848 80.9099 15.8352C80.9099 16.0672 80.8507 16.2803 80.7323 16.4744C80.6187 16.6686 80.4648 16.8248 80.2707 16.9432C80.0813 17.0568 79.8682 17.1136 79.6315 17.1136ZM79.6315 9.01705C79.2811 9.01705 78.9804 8.89157 78.7295 8.64062C78.4785 8.38968 78.3531 8.08902 78.3531 7.73864C78.3531 7.38826 78.4785 7.08759 78.7295 6.83665C78.9804 6.5857 79.2811 6.46023 79.6315 6.46023C79.9818 6.46023 80.2825 6.5857 80.5334 6.83665C80.7844 7.08759 80.9099 7.38826 80.9099 7.73864C80.9099 7.97064 80.8507 8.18371 80.7323 8.37784C80.6187 8.57197 80.4648 8.72822 80.2707 8.84659C80.0813 8.96023 79.8682 9.01705 79.6315 9.01705Z" fill="black"/>
<circle cx="117" cy="10" r="6" fill="#A0BCE0"/>
<circle cx="117" cy="10" r="9" stroke="black" stroke-width="2"/>
<circle cx="145" cy="10" r="10" fill="#E07575"/>
</svg>
