<svg width="297" height="34" viewBox="0 0 297 34" fill="none" xmlns="http://www.w3.org/2000/svg">
<path d="M9.71591 13.0909C9.63068 12.3712 9.28504 11.8125 8.67898 11.4148C8.07292 11.017 7.32955 10.8182 6.44886 10.8182C5.80492 10.8182 5.24148 10.9223 4.75852 11.1307C4.2803 11.339 3.90625 11.6255 3.63636 11.9901C3.37121 12.3546 3.23864 12.7689 3.23864 13.233C3.23864 13.6212 3.33097 13.955 3.51562 14.2344C3.70502 14.509 3.9465 14.7386 4.24006 14.9233C4.53362 15.1032 4.84138 15.2524 5.16335 15.3707C5.48532 15.4844 5.78125 15.5767 6.05114 15.6477L7.52841 16.0455C7.9072 16.1449 8.3286 16.2822 8.79261 16.4574C9.26136 16.6326 9.70881 16.8717 10.1349 17.1747C10.5658 17.473 10.9209 17.8565 11.2003 18.3253C11.4796 18.794 11.6193 19.3693 11.6193 20.0511C11.6193 20.8371 11.4134 21.5473 11.0014 22.1818C10.5942 22.8163 9.99763 23.3205 9.21165 23.6946C8.4304 24.0687 7.48106 24.2557 6.36364 24.2557C5.32197 24.2557 4.41998 24.0876 3.65767 23.7514C2.90009 23.4152 2.3035 22.9465 1.8679 22.3452C1.43703 21.7438 1.19318 21.0455 1.13636 20.25H2.95455C3.00189 20.7992 3.18655 21.2538 3.50852 21.6136C3.83523 21.9687 4.24716 22.2339 4.74432 22.4091C5.24621 22.5795 5.78598 22.6648 6.36364 22.6648C7.03598 22.6648 7.63968 22.5559 8.17472 22.3381C8.70975 22.1155 9.13352 21.8078 9.44602 21.4148C9.75852 21.017 9.91477 20.553 9.91477 20.0227C9.91477 19.5398 9.77983 19.1468 9.50994 18.8438C9.24006 18.5407 8.88494 18.2945 8.4446 18.1051C8.00426 17.9157 7.52841 17.75 7.01705 17.608L5.22727 17.0966C4.09091 16.7699 3.19129 16.3035 2.52841 15.6974C1.86553 15.0914 1.53409 14.2983 1.53409 13.3182C1.53409 12.5038 1.75426 11.7936 2.1946 11.1875C2.63968 10.5767 3.23627 10.1032 3.98438 9.76705C4.73722 9.42614 5.57765 9.25568 6.50568 9.25568C7.44318 9.25568 8.27652 9.42377 9.00568 9.75994C9.73485 10.0914 10.3125 10.5459 10.7386 11.1236C11.1695 11.7012 11.3968 12.357 11.4205 13.0909H9.71591ZM14.888 24V13.0909H16.5641V24H14.888ZM15.7403 11.2727C15.4136 11.2727 15.1318 11.1615 14.8951 10.9389C14.6631 10.7164 14.5471 10.4489 14.5471 10.1364C14.5471 9.82386 14.6631 9.55634 14.8951 9.33381C15.1318 9.11127 15.4136 9 15.7403 9C16.067 9 16.3463 9.11127 16.5783 9.33381C16.8151 9.55634 16.9335 9.82386 16.9335 10.1364C16.9335 10.4489 16.8151 10.7164 16.5783 10.9389C16.3463 11.1615 16.067 11.2727 15.7403 11.2727ZM19.9216 24V22.7216L26.1148 14.767V14.6534H20.1205V13.0909H28.2739V14.4261L22.2511 22.3239V22.4375H28.4727V24H19.9216ZM35.9158 24.2273C34.8646 24.2273 33.9579 23.9953 33.1956 23.5312C32.438 23.0625 31.8533 22.4091 31.4413 21.571C31.0341 20.7282 30.8305 19.7481 30.8305 18.6307C30.8305 17.5133 31.0341 16.5284 31.4413 15.6761C31.8533 14.8191 32.4262 14.1515 33.1601 13.6733C33.8987 13.1903 34.7605 12.9489 35.7453 12.9489C36.3135 12.9489 36.8746 13.0436 37.4286 13.233C37.9825 13.4223 38.4868 13.7301 38.9413 14.1562C39.3959 14.5777 39.7581 15.1364 40.028 15.8324C40.2979 16.5284 40.4328 17.3854 40.4328 18.4034V19.1136H32.0237V17.6648H38.7283C38.7283 17.0492 38.6052 16.5 38.3589 16.017C38.1175 15.5341 37.7718 15.1529 37.322 14.8736C36.8769 14.5942 36.3514 14.4545 35.7453 14.4545C35.0777 14.4545 34.5 14.6203 34.0124 14.9517C33.5294 15.2784 33.1577 15.7045 32.8973 16.2301C32.6369 16.7557 32.5067 17.3191 32.5067 17.9205V18.8864C32.5067 19.7102 32.6487 20.4086 32.9328 20.9815C33.2216 21.5497 33.6217 21.983 34.1331 22.2812C34.6445 22.5748 35.2387 22.7216 35.9158 22.7216C36.3561 22.7216 36.7538 22.66 37.1089 22.5369C37.4688 22.4091 37.7789 22.2197 38.0393 21.9688C38.2998 21.7131 38.501 21.3958 38.643 21.017L40.2624 21.4716C40.0919 22.0208 39.8054 22.5038 39.403 22.9205C39.0005 23.3324 38.5034 23.6544 37.9115 23.8864C37.3196 24.1136 36.6544 24.2273 35.9158 24.2273ZM44.8041 24.1136C44.4537 24.1136 44.1531 23.9882 43.9021 23.7372C43.6512 23.4863 43.5257 23.1856 43.5257 22.8352C43.5257 22.4848 43.6512 22.1842 43.9021 21.9332C44.1531 21.6823 44.4537 21.5568 44.8041 21.5568C45.1545 21.5568 45.4552 21.6823 45.7061 21.9332C45.9571 22.1842 46.0825 22.4848 46.0825 22.8352C46.0825 23.0672 46.0233 23.2803 45.905 23.4744C45.7913 23.6686 45.6375 23.8248 45.4433 23.9432C45.2539 24.0568 45.0409 24.1136 44.8041 24.1136ZM44.8041 16.017C44.4537 16.017 44.1531 15.8916 43.9021 15.6406C43.6512 15.3897 43.5257 15.089 43.5257 14.7386C43.5257 14.3883 43.6512 14.0876 43.9021 13.8366C44.1531 13.5857 44.4537 13.4602 44.8041 13.4602C45.1545 13.4602 45.4552 13.5857 45.7061 13.8366C45.9571 14.0876 46.0825 14.3883 46.0825 14.7386C46.0825 14.9706 46.0233 15.1837 45.905 15.3778C45.7913 15.572 45.6375 15.7282 45.4433 15.8466C45.2539 15.9602 45.0409 16.017 44.8041 16.017Z" fill="black"/>
<rect x="71.5" y="0.5" width="33" height="33" rx="4.5" stroke="black" stroke-opacity="0.5"/>
<path d="M84.516 17.142L87.54 22H85.748L83.55 18.472L81.492 22H79.714L82.738 17.142L79.7 12.27H81.492L83.704 15.826L85.776 12.27H87.554L84.516 17.142ZM92.4982 22.098C91.8449 22.098 91.2569 21.986 90.7342 21.762C90.2115 21.5287 89.8009 21.202 89.5022 20.782C89.2035 20.362 89.0542 19.872 89.0542 19.312H90.7622C90.7995 19.732 90.9629 20.0773 91.2522 20.348C91.5509 20.6187 91.9662 20.754 92.4982 20.754C93.0489 20.754 93.4782 20.6233 93.7862 20.362C94.0942 20.0913 94.2482 19.746 94.2482 19.326C94.2482 18.9993 94.1502 18.7333 93.9542 18.528C93.7675 18.3227 93.5295 18.164 93.2402 18.052C92.9602 17.94 92.5682 17.8187 92.0642 17.688C91.4295 17.52 90.9115 17.352 90.5102 17.184C90.1182 17.0067 89.7822 16.736 89.5022 16.372C89.2222 16.008 89.0822 15.5227 89.0822 14.916C89.0822 14.356 89.2222 13.866 89.5022 13.446C89.7822 13.026 90.1742 12.704 90.6782 12.48C91.1822 12.256 91.7655 12.144 92.4282 12.144C93.3709 12.144 94.1409 12.382 94.7382 12.858C95.3449 13.3247 95.6809 13.9687 95.7462 14.79H93.9822C93.9542 14.4353 93.7862 14.132 93.4782 13.88C93.1702 13.628 92.7642 13.502 92.2602 13.502C91.8029 13.502 91.4295 13.6187 91.1402 13.852C90.8509 14.0853 90.7062 14.4213 90.7062 14.86C90.7062 15.1587 90.7949 15.406 90.9722 15.602C91.1589 15.7887 91.3922 15.938 91.6722 16.05C91.9522 16.162 92.3349 16.2833 92.8202 16.414C93.4642 16.5913 93.9869 16.7687 94.3882 16.946C94.7989 17.1233 95.1442 17.3987 95.4242 17.772C95.7135 18.136 95.8582 18.626 95.8582 19.242C95.8582 19.7367 95.7229 20.2033 95.4522 20.642C95.1909 21.0807 94.8035 21.4353 94.2902 21.706C93.7862 21.9673 93.1889 22.098 92.4982 22.098Z" fill="black"/>
<rect x="119.5" y="0.5" width="33" height="33" rx="4.5" stroke="black" stroke-opacity="0.5"/>
<path d="M136.256 22.098C135.603 22.098 135.015 21.986 134.492 21.762C133.969 21.5287 133.559 21.202 133.26 20.782C132.961 20.362 132.812 19.872 132.812 19.312H134.52C134.557 19.732 134.721 20.0773 135.01 20.348C135.309 20.6187 135.724 20.754 136.256 20.754C136.807 20.754 137.236 20.6233 137.544 20.362C137.852 20.0913 138.006 19.746 138.006 19.326C138.006 18.9993 137.908 18.7333 137.712 18.528C137.525 18.3227 137.287 18.164 136.998 18.052C136.718 17.94 136.326 17.8187 135.822 17.688C135.187 17.52 134.669 17.352 134.268 17.184C133.876 17.0067 133.54 16.736 133.26 16.372C132.98 16.008 132.84 15.5227 132.84 14.916C132.84 14.356 132.98 13.866 133.26 13.446C133.54 13.026 133.932 12.704 134.436 12.48C134.94 12.256 135.523 12.144 136.186 12.144C137.129 12.144 137.899 12.382 138.496 12.858C139.103 13.3247 139.439 13.9687 139.504 14.79H137.74C137.712 14.4353 137.544 14.132 137.236 13.88C136.928 13.628 136.522 13.502 136.018 13.502C135.561 13.502 135.187 13.6187 134.898 13.852C134.609 14.0853 134.464 14.4213 134.464 14.86C134.464 15.1587 134.553 15.406 134.73 15.602C134.917 15.7887 135.15 15.938 135.43 16.05C135.71 16.162 136.093 16.2833 136.578 16.414C137.222 16.5913 137.745 16.7687 138.146 16.946C138.557 17.1233 138.902 17.3987 139.182 17.772C139.471 18.136 139.616 18.626 139.616 19.242C139.616 19.7367 139.481 20.2033 139.21 20.642C138.949 21.0807 138.561 21.4353 138.048 21.706C137.544 21.9673 136.947 22.098 136.256 22.098Z" fill="black"/>
<rect x="168" y="1" width="32" height="32" rx="4" fill="#DB4444"/>
<path d="M189.298 12.27V22H187.702V15.336L184.734 22H183.628L180.646 15.336V22H179.05V12.27H180.772L184.188 19.9L187.59 12.27H189.298Z" fill="#FAFAFA"/>
<rect x="215.5" y="0.5" width="33" height="33" rx="4.5" stroke="black" stroke-opacity="0.5"/>
<path d="M231.646 20.712H234.936V22H230.05V12.27H231.646V20.712Z" fill="black"/>
<rect x="263.5" y="0.5" width="33" height="33" rx="4.5" stroke="black" stroke-opacity="0.5"/>
<path d="M277.516 17.142L280.54 22H278.748L276.55 18.472L274.492 22H272.714L275.738 17.142L272.7 12.27H274.492L276.704 15.826L278.776 12.27H280.554L277.516 17.142ZM283.888 20.712H287.178V22H282.292V12.27H283.888V20.712Z" fill="black"/>
</svg>
